<svg width="330" height="52" fill="none" xmlns="http://www.w3.org/2000/svg"><g clip-path="url('#clip0_27651_226')" fill="#F8D24E"><ellipse cx="249.555" cy="48.127" rx="2.681" ry="2.89"/><ellipse cx="255.365" cy="44.274" rx="2.681" ry="2.89"/><ellipse cx="262.067" cy="39.939" rx="2.681" ry="2.89"/><ellipse cx="268.325" cy="36.086" rx="2.681" ry="2.89"/><ellipse cx="264.748" cy="46.2" rx="2.681" ry="2.89"/><ellipse cx="270.558" cy="42.347" rx="2.681" ry="2.89"/><ellipse cx="277.262" cy="38.013" rx="2.681" ry="2.89"/><ellipse cx="283.519" cy="34.16" rx="2.681" ry="2.89"/><ellipse cx="277.711" cy="44.756" rx="2.681" ry="2.89"/><ellipse cx="283.521" cy="40.902" rx="2.681" ry="2.89"/><ellipse cx="290.225" cy="36.568" rx="2.681" ry="2.89"/><ellipse cx="296.479" cy="32.715" rx="2.681" ry="2.89"/><ellipse cx="290.222" cy="42.829" rx="2.681" ry="2.89"/><ellipse cx="296.031" cy="38.976" rx="2.681" ry="2.89"/><ellipse cx="302.735" cy="34.641" rx="2.681" ry="2.89"/><ellipse cx="308.992" cy="30.788" rx="2.681" ry="2.89"/><ellipse cx="294.246" cy="48.127" rx="2.681" ry="2.89"/><ellipse cx="300.056" cy="44.274" rx="2.681" ry="2.89"/><ellipse cx="308.1" cy="48.608" rx="2.681" ry="2.89"/><ellipse cx="306.761" cy="39.939" rx="2.681" ry="2.89"/><ellipse cx="314.805" cy="44.274" rx="2.681" ry="2.89"/><ellipse cx="321.061" cy="48.608" rx="2.681" ry="2.89"/><ellipse cx="313.016" cy="36.086" rx="2.681" ry="2.89"/><ellipse cx="321.061" cy="40.42" rx="2.681" ry="2.89"/><ellipse cx="327.318" cy="44.755" rx="2.681" ry="2.89"/><ellipse cx="222.296" cy="16.34" rx="2.681" ry="2.89"/><ellipse cx="228.104" cy="12.486" rx="2.681" ry="2.89"/><ellipse cx="234.81" cy="8.152" rx="2.681" ry="2.89"/><ellipse cx="241.064" cy="4.299" rx="2.681" ry="2.89"/><ellipse cx="211.121" cy="15.857" rx="2.681" ry="2.89"/><ellipse cx="216.93" cy="12.004" rx="2.681" ry="2.89"/><ellipse cx="223.634" cy="7.67" rx="2.681" ry="2.89"/><ellipse cx="229.889" cy="3.817" rx="2.681" ry="2.89"/><ellipse cx="236.147" cy="48.127" rx="2.681" ry="2.89"/><ellipse cx="241.956" cy="44.274" rx="2.681" ry="2.89"/><ellipse cx="248.66" cy="39.939" rx="2.681" ry="2.89"/><ellipse cx="254.917" cy="36.086" rx="2.681" ry="2.89"/><ellipse cx="228.997" cy="45.237" rx="2.681" ry="2.89"/><ellipse cx="234.806" cy="41.384" rx="2.681" ry="2.89"/><ellipse cx="241.51" cy="37.049" rx="2.681" ry="2.89"/><ellipse cx="247.766" cy="33.196" rx="2.681" ry="2.89"/><ellipse cx="231.679" cy="35.123" rx="2.681" ry="2.89"/><ellipse cx="237.487" cy="31.27" rx="2.681" ry="2.89"/><ellipse cx="244.193" cy="26.935" rx="2.681" ry="2.89"/><ellipse cx="250.448" cy="23.082" rx="2.681" ry="2.89"/><ellipse cx="231.679" cy="18.265" rx="2.681" ry="2.89"/><ellipse cx="237.487" cy="14.412" rx="2.681" ry="2.89"/><ellipse cx="244.193" cy="10.078" rx="2.681" ry="2.89"/><ellipse cx="250.448" cy="6.225" rx="2.681" ry="2.89"/><ellipse cx="230.338" cy="27.417" rx="2.681" ry="2.89"/><ellipse cx="236.148" cy="23.564" rx="2.681" ry="2.89"/><ellipse cx="242.851" cy="19.229" rx="2.681" ry="2.89"/><ellipse cx="249.107" cy="15.376" rx="2.681" ry="2.89"/><ellipse cx="202.182" cy="13.449" rx="2.681" ry="2.89"/><ellipse cx="207.993" cy="9.596" rx="2.681" ry="2.89"/><ellipse cx="214.697" cy="5.262" rx="2.681" ry="2.89"/><path d="M214.25 16.339c1.481 0 2.681-1.294 2.681-2.89s-1.2-2.89-2.681-2.89-2.682 1.294-2.682 2.89 1.201 2.89 2.682 2.89Z"/><ellipse rx="2.726" ry="2.928" transform="matrix(.98669 -.16302 .14084 .9901 97.255 35.341)"/><ellipse rx="2.726" ry="2.928" transform="matrix(.98669 -.16302 .14084 .9901 102.534 30.512)"/><ellipse rx="2.726" ry="2.928" transform="matrix(.98669 -.16302 .14084 .9901 108.64 25.054)"/><ellipse rx="2.726" ry="2.928" transform="matrix(.98669 -.16302 .14084 .9901 114.366 20.152)"/><ellipse cx="11.72" cy="33.551" rx="2.72" ry="2.82"/><ellipse cx="17.611" cy="29.791" rx="2.72" ry="2.82"/><ellipse cx="24.413" cy="25.562" rx="2.72" ry="2.82"/><ellipse cx="30.758" cy="21.802" rx="2.72" ry="2.82"/><ellipse cx="14.441" cy="40.6" rx="2.72" ry="2.82"/><ellipse cx="20.333" cy="36.84" rx="2.72" ry="2.82"/><ellipse cx="27.134" cy="32.611" rx="2.72" ry="2.82"/><ellipse cx="33.479" cy="28.851" rx="2.72" ry="2.82"/><ellipse cx="21.238" cy="44.36" rx="2.72" ry="2.82"/><ellipse cx="27.132" cy="40.6" rx="2.72" ry="2.82"/><ellipse cx="33.931" cy="36.371" rx="2.72" ry="2.82"/><ellipse cx="40.276" cy="32.611" rx="2.72" ry="2.82"/><ellipse cx="28.943" cy="46.71" rx="2.72" ry="2.82"/><ellipse cx="34.836" cy="42.95" rx="2.72" ry="2.82"/><ellipse cx="41.638" cy="38.721" rx="2.72" ry="2.82"/><ellipse cx="47.981" cy="34.961" rx="2.72" ry="2.82"/><ellipse cx="38.917" cy="47.18" rx="2.72" ry="2.82"/><ellipse cx="44.81" cy="43.421" rx="2.72" ry="2.82"/><ellipse cx="51.61" cy="39.191" rx="2.72" ry="2.82"/><ellipse cx="57.955" cy="35.431" rx="2.72" ry="2.82"/><ellipse cx="50.704" cy="47.18" rx="2.72" ry="2.82"/><ellipse cx="56.596" cy="43.42" rx="2.72" ry="2.82"/><ellipse cx="63.396" cy="39.19" rx="2.72" ry="2.82"/><ellipse cx="69.742" cy="35.431" rx="2.72" ry="2.82"/><ellipse cx="60.674" cy="46.71" rx="2.72" ry="2.82"/><ellipse cx="66.567" cy="42.95" rx="2.72" ry="2.82"/><ellipse cx="73.367" cy="38.721" rx="2.72" ry="2.82"/><ellipse cx="79.712" cy="34.961" rx="2.72" ry="2.82"/><ellipse cx="72.006" cy="46.24" rx="2.72" ry="2.82"/><ellipse cx="77.898" cy="42.48" rx="2.72" ry="2.82"/><ellipse cx="84.699" cy="38.251" rx="2.72" ry="2.82"/><ellipse cx="91.044" cy="34.491" rx="2.72" ry="2.82"/><ellipse cx="82.432" cy="34.021" rx="2.72" ry="2.82"/><ellipse cx="88.324" cy="30.261" rx="2.72" ry="2.82"/><ellipse cx="95.124" cy="26.032" rx="2.72" ry="2.82"/><ellipse cx="101.47" cy="22.271" rx="2.72" ry="2.82"/></g><defs><clipPath id="clip0_27651_226"><path fill="#fff" d="M0 0h330v52H0z"/></clipPath></defs></svg>