<svg width="768" height="69" viewBox="0 0 768 69" fill="none" xmlns="http://www.w3.org/2000/svg">
<ellipse cx="655.854" cy="63.7614" rx="4.00522" ry="3.98792" fill="#F8D24E"/>
<ellipse cx="663.865" cy="58.7765" rx="4.00522" ry="3.98792" fill="#F8D24E"/>
<ellipse cx="673.877" cy="52.7946" rx="4.00522" ry="3.98792" fill="#F8D24E"/>
<ellipse cx="681.888" cy="47.8097" rx="4.00522" ry="3.98792" fill="#F8D24E"/>
<ellipse cx="676.881" cy="61.7675" rx="4.00522" ry="3.98792" fill="#F8D24E"/>
<ellipse cx="684.892" cy="56.7826" rx="4.00522" ry="3.98792" fill="#F8D24E"/>
<ellipse cx="694.905" cy="50.8007" rx="4.00522" ry="3.98792" fill="#F8D24E"/>
<ellipse cx="702.915" cy="45.8158" rx="4.00522" ry="3.98792" fill="#F8D24E"/>
<ellipse cx="694.905" cy="59.7733" rx="4.00522" ry="3.98792" fill="#F8D24E"/>
<ellipse cx="702.915" cy="54.7885" rx="4.00522" ry="3.98792" fill="#F8D24E"/>
<ellipse cx="712.928" cy="48.8065" rx="4.00522" ry="3.98792" fill="#F8D24E"/>
<ellipse cx="720.939" cy="43.8217" rx="4.00522" ry="3.98792" fill="#F8D24E"/>
<ellipse cx="712.928" cy="56.7826" rx="4.00522" ry="3.98792" fill="#F8D24E"/>
<ellipse cx="720.939" cy="51.7977" rx="4.00522" ry="3.98792" fill="#F8D24E"/>
<ellipse cx="730.952" cy="45.8158" rx="4.00522" ry="3.98792" fill="#F8D24E"/>
<ellipse cx="738.962" cy="40.8309" rx="4.00522" ry="3.98792" fill="#F8D24E"/>
<ellipse cx="717.935" cy="63.7614" rx="4.00522" ry="3.98792" fill="#F8D24E"/>
<ellipse cx="725.945" cy="58.7765" rx="4.00522" ry="3.98792" fill="#F8D24E"/>
<ellipse cx="736.96" cy="64.7584" rx="4.00522" ry="3.98792" fill="#F8D24E"/>
<ellipse cx="735.958" cy="52.7946" rx="4.00522" ry="3.98792" fill="#F8D24E"/>
<ellipse cx="746.972" cy="58.7765" rx="4.00522" ry="3.98792" fill="#F8D24E"/>
<ellipse cx="755.984" cy="64.7584" rx="4.00522" ry="3.98792" fill="#F8D24E"/>
<ellipse cx="743.969" cy="47.8097" rx="4.00522" ry="3.98792" fill="#F8D24E"/>
<ellipse cx="755.984" cy="53.7916" rx="4.00522" ry="3.98792" fill="#F8D24E"/>
<ellipse cx="763.995" cy="59.7736" rx="4.00522" ry="3.98792" fill="#F8D24E"/>
<ellipse cx="617.805" cy="21.8883" rx="4.00522" ry="3.98792" fill="#F8D24E"/>
<ellipse cx="625.815" cy="16.9034" rx="4.00522" ry="3.98792" fill="#F8D24E"/>
<ellipse cx="635.828" cy="10.9215" rx="4.00522" ry="3.98792" fill="#F8D24E"/>
<ellipse cx="643.838" cy="5.93665" rx="4.00522" ry="3.98792" fill="#F8D24E"/>
<ellipse cx="601.784" cy="20.8912" rx="4.00522" ry="3.98792" fill="#F8D24E"/>
<ellipse cx="609.794" cy="15.9064" rx="4.00522" ry="3.98792" fill="#F8D24E"/>
<ellipse cx="619.807" cy="9.92444" rx="4.00522" ry="3.98792" fill="#F8D24E"/>
<ellipse cx="627.818" cy="4.93958" rx="4.00522" ry="3.98792" fill="#F8D24E"/>
<ellipse cx="636.829" cy="63.7614" rx="4.00522" ry="3.98792" fill="#F8D24E"/>
<ellipse cx="644.84" cy="58.7765" rx="4.00522" ry="3.98792" fill="#F8D24E"/>
<ellipse cx="654.853" cy="52.7946" rx="4.00522" ry="3.98792" fill="#F8D24E"/>
<ellipse cx="662.863" cy="47.8097" rx="4.00522" ry="3.98792" fill="#F8D24E"/>
<ellipse cx="626.816" cy="60.7704" rx="4.00522" ry="3.98792" fill="#F8D24E"/>
<ellipse cx="634.826" cy="55.7855" rx="4.00522" ry="3.98792" fill="#F8D24E"/>
<ellipse cx="644.84" cy="49.8036" rx="4.00522" ry="3.98792" fill="#F8D24E"/>
<ellipse cx="652.85" cy="44.8187" rx="4.00522" ry="3.98792" fill="#F8D24E"/>
<ellipse cx="630.822" cy="46.8126" rx="4.00522" ry="3.98792" fill="#F8D24E"/>
<ellipse cx="638.832" cy="41.8278" rx="4.00522" ry="3.98792" fill="#F8D24E"/>
<ellipse cx="648.845" cy="35.8458" rx="4.00522" ry="3.98792" fill="#F8D24E"/>
<ellipse cx="656.855" cy="30.861" rx="4.00522" ry="3.98792" fill="#F8D24E"/>
<ellipse cx="630.822" cy="23.8822" rx="4.00522" ry="3.98792" fill="#F8D24E"/>
<ellipse cx="638.832" cy="18.8973" rx="4.00522" ry="3.98792" fill="#F8D24E"/>
<ellipse cx="648.845" cy="12.9154" rx="4.00522" ry="3.98792" fill="#F8D24E"/>
<ellipse cx="656.855" cy="7.93054" rx="4.00522" ry="3.98792" fill="#F8D24E"/>
<ellipse cx="628.819" cy="36.8429" rx="4.00522" ry="3.98792" fill="#F8D24E"/>
<ellipse cx="636.829" cy="31.858" rx="4.00522" ry="3.98792" fill="#F8D24E"/>
<ellipse cx="646.842" cy="25.8761" rx="4.00522" ry="3.98792" fill="#F8D24E"/>
<ellipse cx="654.853" cy="20.8912" rx="4.00522" ry="3.98792" fill="#F8D24E"/>
<ellipse cx="589.267" cy="17.9003" rx="3.50456" ry="3.98792" fill="#F8D24E"/>
<ellipse cx="597.278" cy="12.9154" rx="3.50456" ry="3.98792" fill="#F8D24E"/>
<ellipse cx="607.291" cy="6.93347" rx="3.50456" ry="3.98792" fill="#F8D24E"/>
<path d="M606.289 21.8882C608.225 21.8882 609.794 20.1027 609.794 17.9003C609.794 15.6978 608.225 13.9124 606.289 13.9124C604.354 13.9124 602.785 15.6978 602.785 17.9003C602.785 20.1027 604.354 21.8882 606.289 21.8882Z" fill="#F8D24E"/>
<ellipse cx="4.00522" cy="59" rx="4.00522" ry="4" fill="#F8D24E"/>
<ellipse cx="12.0155" cy="54" rx="4.00522" ry="4" fill="#F8D24E"/>
<ellipse cx="22.0287" cy="48" rx="4.00522" ry="4" fill="#F8D24E"/>
<ellipse cx="30.0389" cy="43" rx="4.00522" ry="4" fill="#F8D24E"/>
<ellipse cx="52.0677" cy="61" rx="4.00522" ry="4" fill="#F8D24E"/>
<ellipse cx="60.0785" cy="56" rx="4.00522" ry="4" fill="#F8D24E"/>
<ellipse cx="70.0912" cy="50" rx="4.00522" ry="4" fill="#F8D24E"/>
<ellipse cx="78.1019" cy="45" rx="4.00522" ry="4" fill="#F8D24E"/>
<ellipse cx="70.592" cy="58" rx="3.50456" ry="4" fill="#F8D24E"/>
<ellipse cx="78.6022" cy="53" rx="3.50456" ry="4" fill="#F8D24E"/>
<ellipse cx="87.6139" cy="48" rx="3.50456" ry="4" fill="#F8D24E"/>
<ellipse cx="96.6257" cy="43" rx="3.50456" ry="4" fill="#F8D24E"/>
<ellipse cx="106.639" cy="35" rx="3.50456" ry="4" fill="#F8D24E"/>
<ellipse cx="85.6115" cy="39" rx="3.50456" ry="4" fill="#F8D24E"/>
<ellipse cx="34.0443" cy="61" rx="4.00522" ry="4" fill="#F8D24E"/>
<ellipse cx="42.0545" cy="56" rx="4.00522" ry="4" fill="#F8D24E"/>
<ellipse cx="52.0677" cy="50" rx="4.00522" ry="4" fill="#F8D24E"/>
<ellipse cx="60.0785" cy="45" rx="4.00522" ry="4" fill="#F8D24E"/>
<ellipse cx="18.0233" cy="60" rx="4.00522" ry="4" fill="#F8D24E"/>
<ellipse cx="26.034" cy="55" rx="4.00522" ry="4" fill="#F8D24E"/>
<ellipse cx="36.0467" cy="49" rx="4.00522" ry="4" fill="#F8D24E"/>
<ellipse cx="44.0575" cy="44" rx="4.00522" ry="4" fill="#F8D24E"/>
</svg>
