<svg width="1200" height="384" viewBox="0 0 1200 384" fill="none" xmlns="http://www.w3.org/2000/svg">
<ellipse cx="447.193" cy="32.7546" rx="5.85842" ry="6.2439" fill="#F8D24E"/>
<ellipse cx="459.886" cy="24.4294" rx="5.85842" ry="6.2439" fill="#F8D24E"/>
<ellipse cx="474.532" cy="15.0635" rx="5.85842" ry="6.2439" fill="#F8D24E"/>
<ellipse cx="488.202" cy="6.73829" rx="5.85842" ry="6.2439" fill="#F8D24E"/>
<ellipse cx="428.641" cy="54.6082" rx="5.85842" ry="6.2439" fill="#F8D24E"/>
<ellipse cx="441.335" cy="46.283" rx="5.85842" ry="6.2439" fill="#F8D24E"/>
<ellipse cx="455.98" cy="36.9172" rx="5.85842" ry="6.2439" fill="#F8D24E"/>
<ellipse cx="469.65" cy="28.592" rx="5.85842" ry="6.2439" fill="#F8D24E"/>
<ellipse cx="400.325" cy="55.6489" rx="5.85842" ry="6.2439" fill="#F8D24E"/>
<ellipse cx="413.019" cy="47.3237" rx="5.85842" ry="6.2439" fill="#F8D24E"/>
<ellipse cx="427.665" cy="37.9578" rx="5.85842" ry="6.2439" fill="#F8D24E"/>
<ellipse cx="441.335" cy="29.6326" rx="5.85842" ry="6.2439" fill="#F8D24E"/>
<ellipse cx="384.703" cy="79.5837" rx="5.85842" ry="6.2439" fill="#F8D24E"/>
<ellipse cx="397.396" cy="71.2586" rx="5.85842" ry="6.2439" fill="#F8D24E"/>
<ellipse cx="412.042" cy="61.8928" rx="5.85842" ry="6.2439" fill="#F8D24E"/>
<ellipse cx="425.712" cy="53.5676" rx="5.85842" ry="6.2439" fill="#F8D24E"/>
<ellipse cx="372.986" cy="101.438" rx="5.85842" ry="6.2439" fill="#F8D24E"/>
<ellipse cx="385.679" cy="93.1123" rx="5.85842" ry="6.2439" fill="#F8D24E"/>
<ellipse cx="400.325" cy="83.7463" rx="5.85842" ry="6.2439" fill="#F8D24E"/>
<ellipse cx="413.995" cy="75.4212" rx="5.85842" ry="6.2439" fill="#F8D24E"/>
<ellipse rx="5.85842" ry="6.2439" transform="matrix(0.999999 0.00156002 -0.00137335 0.999999 364.208 123.3)" fill="#F8D24E"/>
<ellipse rx="5.85842" ry="6.2439" transform="matrix(0.999999 0.00156002 -0.00137335 0.999999 376.912 114.995)" fill="#F8D24E"/>
<ellipse rx="5.85842" ry="6.2439" transform="matrix(0.999999 0.00156002 -0.00137335 0.999999 391.572 105.652)" fill="#F8D24E"/>
<ellipse rx="5.85842" ry="6.2439" transform="matrix(0.999999 0.00156002 -0.00137335 0.999999 405.253 97.348)" fill="#F8D24E"/>
<ellipse rx="5.85842" ry="6.2439" transform="matrix(0.999999 0.00156002 -0.00137335 0.999999 240.228 160.806)" fill="#F8D24E"/>
<ellipse rx="5.85842" ry="6.2439" transform="matrix(0.999999 0.00156002 -0.00137335 0.999999 253.909 152.502)" fill="#F8D24E"/>
<ellipse rx="5.85842" ry="6.2439" transform="matrix(0.999999 0.00156002 -0.00137335 0.999999 325.151 132.666)" fill="#F8D24E"/>
<ellipse rx="5.85842" ry="6.2439" transform="matrix(0.999999 0.00156002 -0.00137335 0.999999 337.856 124.361)" fill="#F8D24E"/>
<ellipse rx="5.85842" ry="6.2439" transform="matrix(0.999999 0.00156002 -0.00137335 0.999999 352.514 115.018)" fill="#F8D24E"/>
<ellipse rx="5.85842" ry="6.2439" transform="matrix(0.999999 0.00156002 -0.00137335 0.999999 366.196 106.713)" fill="#F8D24E"/>
<ellipse cx="241.171" cy="142.023" rx="5.85842" ry="6.2439" fill="#F8D24E"/>
<ellipse cx="254.841" cy="133.698" rx="5.85842" ry="6.2439" fill="#F8D24E"/>
<ellipse cx="273.393" cy="124.332" rx="5.85842" ry="6.2439" fill="#F8D24E"/>
<ellipse cx="286.086" cy="116.007" rx="5.85842" ry="6.2439" fill="#F8D24E"/>
<ellipse cx="300.732" cy="106.64" rx="5.85842" ry="6.2439" fill="#F8D24E"/>
<ellipse cx="314.402" cy="98.3152" rx="5.85842" ry="6.2439" fill="#F8D24E"/>
<ellipse cx="298.779" cy="136.819" rx="5.85842" ry="6.2439" fill="#F8D24E"/>
<ellipse cx="311.473" cy="128.494" rx="5.85842" ry="6.2439" fill="#F8D24E"/>
<ellipse cx="326.119" cy="119.129" rx="5.85842" ry="6.2439" fill="#F8D24E"/>
<ellipse cx="339.789" cy="110.803" rx="5.85842" ry="6.2439" fill="#F8D24E"/>
<ellipse cx="300.732" cy="120.169" rx="5.85842" ry="6.2439" fill="#F8D24E"/>
<ellipse cx="313.426" cy="111.844" rx="5.85842" ry="6.2439" fill="#F8D24E"/>
<ellipse cx="328.072" cy="102.478" rx="5.85842" ry="6.2439" fill="#F8D24E"/>
<ellipse cx="341.741" cy="94.1528" rx="5.85842" ry="6.2439" fill="#F8D24E"/>
<ellipse cx="247.03" cy="126.413" rx="5.85842" ry="6.2439" fill="#F8D24E"/>
<ellipse cx="259.723" cy="118.088" rx="5.85842" ry="6.2439" fill="#F8D24E"/>
<ellipse cx="274.37" cy="108.722" rx="5.85842" ry="6.2439" fill="#F8D24E"/>
<ellipse cx="288.039" cy="100.397" rx="5.85842" ry="6.2439" fill="#F8D24E"/>
<ellipse cx="5.85842" cy="358.478" rx="5.85842" ry="6.2439" fill="#F8D24E"/>
<ellipse cx="18.5513" cy="350.153" rx="5.85842" ry="6.2439" fill="#F8D24E"/>
<ellipse cx="33.1978" cy="340.787" rx="5.85842" ry="6.2439" fill="#F8D24E"/>
<ellipse cx="46.8672" cy="332.462" rx="5.85842" ry="6.2439" fill="#F8D24E"/>
<ellipse cx="80.065" cy="361.6" rx="5.85842" ry="6.2439" fill="#F8D24E"/>
<ellipse cx="92.7578" cy="353.275" rx="5.85842" ry="6.2439" fill="#F8D24E"/>
<ellipse cx="107.404" cy="343.909" rx="5.85842" ry="6.2439" fill="#F8D24E"/>
<ellipse cx="121.074" cy="335.584" rx="5.85842" ry="6.2439" fill="#F8D24E"/>
<ellipse cx="110.334" cy="357.438" rx="5.85842" ry="6.2439" fill="#F8D24E"/>
<ellipse cx="123.027" cy="349.112" rx="5.85842" ry="6.2439" fill="#F8D24E"/>
<ellipse cx="137.673" cy="339.746" rx="5.85842" ry="6.2439" fill="#F8D24E"/>
<ellipse cx="151.343" cy="331.421" rx="5.85842" ry="6.2439" fill="#F8D24E"/>
<ellipse cx="165.989" cy="318.933" rx="5.85842" ry="6.2439" fill="#F8D24E"/>
<ellipse cx="134.744" cy="326.218" rx="5.85842" ry="6.2439" fill="#F8D24E"/>
<ellipse cx="1024.25" cy="376.672" rx="5.85842" ry="6.23878" fill="#F8D24E"/>
<ellipse cx="1036.94" cy="368.353" rx="5.85842" ry="6.23878" fill="#F8D24E"/>
<ellipse cx="1051.59" cy="358.995" rx="5.85842" ry="6.23878" fill="#F8D24E"/>
<ellipse cx="1065.26" cy="350.677" rx="5.85842" ry="6.23878" fill="#F8D24E"/>
<ellipse cx="1057.44" cy="372.513" rx="5.85842" ry="6.23878" fill="#F8D24E"/>
<ellipse cx="1070.14" cy="364.194" rx="5.85842" ry="6.23878" fill="#F8D24E"/>
<ellipse cx="1084.78" cy="354.836" rx="5.85842" ry="6.23878" fill="#F8D24E"/>
<ellipse cx="1098.45" cy="346.518" rx="5.85842" ry="6.23878" fill="#F8D24E"/>
<ellipse cx="1085.76" cy="369.393" rx="5.85842" ry="6.23878" fill="#F8D24E"/>
<ellipse cx="1098.45" cy="361.075" rx="5.85842" ry="6.23878" fill="#F8D24E"/>
<ellipse cx="1113.1" cy="351.717" rx="5.85842" ry="6.23878" fill="#F8D24E"/>
<ellipse cx="1126.77" cy="343.398" rx="5.85842" ry="6.23878" fill="#F8D24E"/>
<ellipse cx="1113.1" cy="365.234" rx="5.85842" ry="6.23878" fill="#F8D24E"/>
<ellipse cx="1125.79" cy="356.916" rx="5.85842" ry="6.23878" fill="#F8D24E"/>
<ellipse cx="1140.44" cy="347.557" rx="5.85842" ry="6.23878" fill="#F8D24E"/>
<ellipse cx="1154.11" cy="339.239" rx="5.85842" ry="6.23878" fill="#F8D24E"/>
<ellipse cx="1121.89" cy="376.672" rx="5.85842" ry="6.23878" fill="#F8D24E"/>
<ellipse cx="1134.58" cy="368.353" rx="5.85842" ry="6.23878" fill="#F8D24E"/>
<ellipse cx="1152.16" cy="377.712" rx="5.85842" ry="6.23878" fill="#F8D24E"/>
<ellipse cx="1149.23" cy="358.995" rx="5.85842" ry="6.23878" fill="#F8D24E"/>
<ellipse cx="1166.8" cy="368.353" rx="5.85842" ry="6.23878" fill="#F8D24E"/>
<ellipse cx="1180.47" cy="377.712" rx="5.85842" ry="6.23878" fill="#F8D24E"/>
<ellipse cx="1162.9" cy="350.677" rx="5.85842" ry="6.23878" fill="#F8D24E"/>
<ellipse cx="1180.47" cy="360.035" rx="5.85842" ry="6.23878" fill="#F8D24E"/>
<ellipse cx="1194.14" cy="369.393" rx="5.85842" ry="6.23878" fill="#F8D24E"/>
<ellipse cx="964.687" cy="308.045" rx="5.85842" ry="6.23878" fill="#F8D24E"/>
<ellipse cx="977.38" cy="299.727" rx="5.85842" ry="6.23878" fill="#F8D24E"/>
<ellipse cx="992.026" cy="290.369" rx="5.85842" ry="6.23878" fill="#F8D24E"/>
<ellipse cx="1005.7" cy="282.05" rx="5.85842" ry="6.23878" fill="#F8D24E"/>
<ellipse cx="940.276" cy="307.005" rx="5.85842" ry="6.23878" fill="#F8D24E"/>
<ellipse cx="952.97" cy="298.687" rx="5.85842" ry="6.23878" fill="#F8D24E"/>
<ellipse cx="967.616" cy="289.329" rx="5.85842" ry="6.23878" fill="#F8D24E"/>
<ellipse cx="981.285" cy="281.01" rx="5.85842" ry="6.23878" fill="#F8D24E"/>
<ellipse cx="994.956" cy="376.672" rx="5.85842" ry="6.23878" fill="#F8D24E"/>
<ellipse cx="1007.65" cy="368.353" rx="5.85842" ry="6.23878" fill="#F8D24E"/>
<ellipse cx="1022.29" cy="358.995" rx="5.85842" ry="6.23878" fill="#F8D24E"/>
<ellipse cx="1035.96" cy="350.677" rx="5.85842" ry="6.23878" fill="#F8D24E"/>
<ellipse cx="979.333" cy="370.433" rx="5.85842" ry="6.23878" fill="#F8D24E"/>
<ellipse cx="992.026" cy="362.115" rx="5.85842" ry="6.23878" fill="#F8D24E"/>
<ellipse cx="1006.67" cy="352.756" rx="5.85842" ry="6.23878" fill="#F8D24E"/>
<ellipse cx="1020.34" cy="344.438" rx="5.85842" ry="6.23878" fill="#F8D24E"/>
<ellipse cx="985.191" cy="348.597" rx="5.85842" ry="6.23878" fill="#F8D24E"/>
<ellipse cx="997.885" cy="340.279" rx="5.85842" ry="6.23878" fill="#F8D24E"/>
<ellipse cx="1012.53" cy="330.921" rx="5.85842" ry="6.23878" fill="#F8D24E"/>
<ellipse cx="1026.2" cy="322.602" rx="5.85842" ry="6.23878" fill="#F8D24E"/>
<ellipse rx="5.86745" ry="6.23032" transform="matrix(0.986931 -0.161124 0.142489 0.989794 680.19 303.798)" fill="#F8D24E"/>
<ellipse rx="5.86745" ry="6.23032" transform="matrix(0.986931 -0.161124 0.142489 0.989794 691.553 293.528)" fill="#F8D24E"/>
<ellipse rx="5.86745" ry="6.23032" transform="matrix(0.986931 -0.161124 0.142489 0.989794 704.699 281.914)" fill="#F8D24E"/>
<ellipse rx="5.86745" ry="6.23032" transform="matrix(0.986931 -0.161124 0.142489 0.989794 717.027 271.486)" fill="#F8D24E"/>
<ellipse cx="985.191" cy="312.204" rx="5.85842" ry="6.23878" fill="#F8D24E"/>
<ellipse cx="997.885" cy="303.886" rx="5.85842" ry="6.23878" fill="#F8D24E"/>
<ellipse cx="1012.53" cy="294.528" rx="5.85842" ry="6.23878" fill="#F8D24E"/>
<ellipse cx="1026.2" cy="286.209" rx="5.85842" ry="6.23878" fill="#F8D24E"/>
<ellipse cx="982.262" cy="331.96" rx="5.85842" ry="6.23878" fill="#F8D24E"/>
<ellipse cx="994.956" cy="323.642" rx="5.85842" ry="6.23878" fill="#F8D24E"/>
<ellipse cx="1009.6" cy="314.284" rx="5.85842" ry="6.23878" fill="#F8D24E"/>
<ellipse cx="1023.27" cy="305.965" rx="5.85842" ry="6.23878" fill="#F8D24E"/>
<ellipse cx="920.749" cy="301.806" rx="5.85842" ry="6.23878" fill="#F8D24E"/>
<ellipse cx="933.442" cy="293.488" rx="5.85842" ry="6.23878" fill="#F8D24E"/>
<ellipse cx="948.088" cy="284.13" rx="5.85842" ry="6.23878" fill="#F8D24E"/>
<path d="M947.112 308.045C950.347 308.045 952.97 305.252 952.97 301.806C952.97 298.361 950.347 295.567 947.112 295.567C943.876 295.567 941.253 298.361 941.253 301.806C941.253 305.252 943.876 308.045 947.112 308.045Z" fill="#F8D24E"/>
<ellipse cx="52.7256" cy="360.559" rx="5.85842" ry="6.2439" fill="#F8D24E"/>
<ellipse cx="65.419" cy="352.234" rx="5.85842" ry="6.2439" fill="#F8D24E"/>
<ellipse cx="80.065" cy="342.868" rx="5.85842" ry="6.2439" fill="#F8D24E"/>
<ellipse cx="93.7349" cy="334.543" rx="5.85842" ry="6.2439" fill="#F8D24E"/>
<ellipse cx="28.3159" cy="359.519" rx="5.85842" ry="6.2439" fill="#F8D24E"/>
<ellipse cx="41.0088" cy="351.193" rx="5.85842" ry="6.2439" fill="#F8D24E"/>
<ellipse cx="55.6548" cy="341.828" rx="5.85842" ry="6.2439" fill="#F8D24E"/>
<ellipse cx="69.3242" cy="333.503" rx="5.85842" ry="6.2439" fill="#F8D24E"/>
<ellipse cx="447.193" cy="56.6895" rx="5.85842" ry="6.2439" fill="#F8D24E"/>
<ellipse cx="459.886" cy="48.3643" rx="5.85842" ry="6.2439" fill="#F8D24E"/>
<ellipse cx="474.532" cy="38.9985" rx="5.85842" ry="6.2439" fill="#F8D24E"/>
<ellipse cx="488.202" cy="30.6733" rx="5.85842" ry="6.2439" fill="#F8D24E"/>
<ellipse cx="445.24" cy="99.3562" rx="5.85842" ry="6.2439" fill="#F8D24E"/>
<ellipse cx="457.933" cy="91.031" rx="5.85842" ry="6.2439" fill="#F8D24E"/>
<ellipse cx="472.58" cy="81.6648" rx="5.85842" ry="6.2439" fill="#F8D24E"/>
<ellipse cx="486.249" cy="73.3396" rx="5.85842" ry="6.2439" fill="#F8D24E"/>
<ellipse cx="448.169" cy="77.5024" rx="5.85842" ry="6.2439" fill="#F8D24E"/>
<ellipse cx="460.862" cy="69.1773" rx="5.85842" ry="6.2439" fill="#F8D24E"/>
<ellipse cx="475.509" cy="59.8115" rx="5.85842" ry="6.2439" fill="#F8D24E"/>
<ellipse cx="489.178" cy="51.4863" rx="5.85842" ry="6.2439" fill="#F8D24E"/>
<ellipse cx="446.216" cy="120.169" rx="5.85842" ry="6.2439" fill="#F8D24E"/>
<ellipse cx="458.91" cy="111.844" rx="5.85842" ry="6.2439" fill="#F8D24E"/>
<ellipse cx="473.556" cy="102.478" rx="5.85842" ry="6.2439" fill="#F8D24E"/>
<ellipse cx="487.225" cy="94.1528" rx="5.85842" ry="6.2439" fill="#F8D24E"/>
<ellipse cx="452.075" cy="134.738" rx="5.85842" ry="6.2439" fill="#F8D24E"/>
<ellipse cx="464.768" cy="126.413" rx="5.85842" ry="6.2439" fill="#F8D24E"/>
<ellipse cx="479.414" cy="117.047" rx="5.85842" ry="6.2439" fill="#F8D24E"/>
<ellipse cx="493.084" cy="108.722" rx="5.85842" ry="6.2439" fill="#F8D24E"/>
<ellipse cx="464.768" cy="146.185" rx="5.85842" ry="6.2439" fill="#F8D24E"/>
<ellipse cx="477.461" cy="137.86" rx="5.85842" ry="6.2439" fill="#F8D24E"/>
<ellipse cx="492.107" cy="128.494" rx="5.85842" ry="6.2439" fill="#F8D24E"/>
<ellipse cx="505.777" cy="120.169" rx="5.85842" ry="6.2439" fill="#F8D24E"/>
<ellipse cx="481.367" cy="155.551" rx="5.85842" ry="6.2439" fill="#F8D24E"/>
<ellipse cx="494.06" cy="147.226" rx="5.85842" ry="6.2439" fill="#F8D24E"/>
<ellipse cx="508.706" cy="137.86" rx="5.85842" ry="6.2439" fill="#F8D24E"/>
<ellipse cx="522.376" cy="129.535" rx="5.85842" ry="6.2439" fill="#F8D24E"/>
<ellipse cx="500.895" cy="157.633" rx="5.85842" ry="6.2439" fill="#F8D24E"/>
<ellipse cx="513.588" cy="149.307" rx="5.85842" ry="6.2439" fill="#F8D24E"/>
<ellipse cx="528.234" cy="139.942" rx="5.85842" ry="6.2439" fill="#F8D24E"/>
<ellipse cx="541.904" cy="131.616" rx="5.85842" ry="6.2439" fill="#F8D24E"/>
<ellipse cx="520.423" cy="161.795" rx="5.85842" ry="6.2439" fill="#F8D24E"/>
<ellipse cx="533.117" cy="153.47" rx="5.85842" ry="6.2439" fill="#F8D24E"/>
<ellipse cx="547.763" cy="144.104" rx="5.85842" ry="6.2439" fill="#F8D24E"/>
<ellipse cx="561.433" cy="135.779" rx="5.85842" ry="6.2439" fill="#F8D24E"/>
<ellipse cx="515.542" cy="181.568" rx="5.85842" ry="6.2439" fill="#F8D24E"/>
<ellipse cx="528.234" cy="173.242" rx="5.85842" ry="6.2439" fill="#F8D24E"/>
<ellipse cx="542.88" cy="163.876" rx="5.85842" ry="6.2439" fill="#F8D24E"/>
<ellipse cx="556.55" cy="155.551" rx="5.85842" ry="6.2439" fill="#F8D24E"/>
<ellipse cx="513.588" cy="200.299" rx="5.85842" ry="6.2439" fill="#F8D24E"/>
<ellipse cx="526.282" cy="191.974" rx="5.85842" ry="6.2439" fill="#F8D24E"/>
<ellipse cx="540.928" cy="182.608" rx="5.85842" ry="6.2439" fill="#F8D24E"/>
<ellipse cx="554.597" cy="174.283" rx="5.85842" ry="6.2439" fill="#F8D24E"/>
<ellipse cx="506.753" cy="224.234" rx="5.85842" ry="6.2439" fill="#F8D24E"/>
<ellipse cx="519.447" cy="215.909" rx="5.85842" ry="6.2439" fill="#F8D24E"/>
<ellipse cx="534.093" cy="206.543" rx="5.85842" ry="6.2439" fill="#F8D24E"/>
<ellipse cx="547.763" cy="198.218" rx="5.85842" ry="6.2439" fill="#F8D24E"/>
<ellipse cx="503.824" cy="245.047" rx="5.85842" ry="6.2439" fill="#F8D24E"/>
<ellipse cx="516.517" cy="236.722" rx="5.85842" ry="6.2439" fill="#F8D24E"/>
<ellipse cx="531.163" cy="227.356" rx="5.85842" ry="6.2439" fill="#F8D24E"/>
<ellipse cx="544.833" cy="219.031" rx="5.85842" ry="6.2439" fill="#F8D24E"/>
<ellipse cx="499.918" cy="266.901" rx="5.85842" ry="6.2439" fill="#F8D24E"/>
<ellipse cx="512.612" cy="258.576" rx="5.85842" ry="6.2439" fill="#F8D24E"/>
<ellipse cx="527.258" cy="249.21" rx="5.85842" ry="6.2439" fill="#F8D24E"/>
<ellipse cx="540.928" cy="240.885" rx="5.85842" ry="6.2439" fill="#F8D24E"/>
<ellipse cx="497.965" cy="284.592" rx="5.85842" ry="6.2439" fill="#F8D24E"/>
<ellipse cx="510.659" cy="276.267" rx="5.85842" ry="6.2439" fill="#F8D24E"/>
<ellipse cx="525.305" cy="266.901" rx="5.85842" ry="6.2439" fill="#F8D24E"/>
<ellipse cx="538.975" cy="258.576" rx="5.85842" ry="6.2439" fill="#F8D24E"/>
<ellipse cx="496.013" cy="303.324" rx="5.85842" ry="6.2439" fill="#F8D24E"/>
<ellipse cx="508.707" cy="294.998" rx="5.85842" ry="6.2439" fill="#F8D24E"/>
<ellipse cx="523.353" cy="285.633" rx="5.85842" ry="6.2439" fill="#F8D24E"/>
<ellipse cx="537.022" cy="277.307" rx="5.85842" ry="6.2439" fill="#F8D24E"/>
<ellipse cx="501.871" cy="318.933" rx="5.85842" ry="6.2439" fill="#F8D24E"/>
<ellipse cx="514.564" cy="310.608" rx="5.85842" ry="6.2439" fill="#F8D24E"/>
<ellipse cx="529.21" cy="301.242" rx="5.85842" ry="6.2439" fill="#F8D24E"/>
<ellipse cx="542.88" cy="292.917" rx="5.85842" ry="6.2439" fill="#F8D24E"/>
<ellipse cx="516.518" cy="327.259" rx="5.85842" ry="6.2439" fill="#F8D24E"/>
<ellipse cx="529.211" cy="318.933" rx="5.85842" ry="6.2439" fill="#F8D24E"/>
<ellipse cx="543.857" cy="309.568" rx="5.85842" ry="6.2439" fill="#F8D24E"/>
<ellipse cx="557.526" cy="301.242" rx="5.85842" ry="6.2439" fill="#F8D24E"/>
<ellipse cx="533.117" cy="332.462" rx="5.85842" ry="6.2439" fill="#F8D24E"/>
<ellipse cx="545.81" cy="324.137" rx="5.85842" ry="6.2439" fill="#F8D24E"/>
<ellipse cx="560.456" cy="314.771" rx="5.85842" ry="6.2439" fill="#F8D24E"/>
<ellipse cx="574.125" cy="306.446" rx="5.85842" ry="6.2439" fill="#F8D24E"/>
<ellipse cx="554.597" cy="333.503" rx="5.85842" ry="6.2439" fill="#F8D24E"/>
<ellipse cx="567.291" cy="325.177" rx="5.85842" ry="6.2439" fill="#F8D24E"/>
<ellipse cx="581.937" cy="315.811" rx="5.85842" ry="6.2439" fill="#F8D24E"/>
<ellipse cx="595.606" cy="307.486" rx="5.85842" ry="6.2439" fill="#F8D24E"/>
<ellipse cx="579.984" cy="333.503" rx="5.85842" ry="6.2439" fill="#F8D24E"/>
<ellipse cx="592.677" cy="325.177" rx="5.85842" ry="6.2439" fill="#F8D24E"/>
<ellipse cx="607.323" cy="315.811" rx="5.85842" ry="6.2439" fill="#F8D24E"/>
<ellipse cx="620.993" cy="307.486" rx="5.85842" ry="6.2439" fill="#F8D24E"/>
<ellipse cx="601.464" cy="332.462" rx="5.85842" ry="6.2439" fill="#F8D24E"/>
<ellipse cx="614.157" cy="324.137" rx="5.85842" ry="6.2439" fill="#F8D24E"/>
<ellipse cx="628.804" cy="314.771" rx="5.85842" ry="6.2439" fill="#F8D24E"/>
<ellipse cx="642.473" cy="306.446" rx="5.85842" ry="6.2439" fill="#F8D24E"/>
<ellipse cx="625.875" cy="331.421" rx="5.85842" ry="6.2439" fill="#F8D24E"/>
<ellipse cx="638.568" cy="323.096" rx="5.85842" ry="6.2439" fill="#F8D24E"/>
<ellipse cx="653.213" cy="313.73" rx="5.85842" ry="6.2439" fill="#F8D24E"/>
<ellipse cx="666.883" cy="305.405" rx="5.85842" ry="6.2439" fill="#F8D24E"/>
<ellipse cx="648.332" cy="304.364" rx="5.85842" ry="6.2439" fill="#F8D24E"/>
<ellipse cx="661.025" cy="296.039" rx="5.85842" ry="6.2439" fill="#F8D24E"/>
<ellipse cx="675.671" cy="286.673" rx="5.85842" ry="6.2439" fill="#F8D24E"/>
<ellipse cx="689.341" cy="278.348" rx="5.85842" ry="6.2439" fill="#F8D24E"/>
</svg>
