<svg width="320" height="50" viewBox="0 0 320 50" fill="none" xmlns="http://www.w3.org/2000/svg">
<ellipse cx="241.993" cy="46.2757" rx="2.60019" ry="2.77865" fill="#F8D24E"/>
<ellipse cx="247.628" cy="42.5708" rx="2.60019" ry="2.77865" fill="#F8D24E"/>
<ellipse cx="254.126" cy="38.4026" rx="2.60019" ry="2.77865" fill="#F8D24E"/>
<ellipse cx="260.195" cy="34.6976" rx="2.60019" ry="2.77865" fill="#F8D24E"/>
<ellipse cx="256.726" cy="44.4233" rx="2.60019" ry="2.77865" fill="#F8D24E"/>
<ellipse cx="262.361" cy="40.7185" rx="2.60019" ry="2.77865" fill="#F8D24E"/>
<ellipse cx="268.86" cy="36.5505" rx="2.60019" ry="2.77865" fill="#F8D24E"/>
<ellipse cx="274.929" cy="32.8459" rx="2.60019" ry="2.77865" fill="#F8D24E"/>
<ellipse cx="269.296" cy="43.0343" rx="2.60019" ry="2.77865" fill="#F8D24E"/>
<ellipse cx="274.93" cy="39.3289" rx="2.60019" ry="2.77865" fill="#F8D24E"/>
<ellipse cx="281.43" cy="35.1611" rx="2.60019" ry="2.77865" fill="#F8D24E"/>
<ellipse cx="287.496" cy="31.4569" rx="2.60019" ry="2.77865" fill="#F8D24E"/>
<ellipse cx="281.428" cy="41.182" rx="2.60019" ry="2.77865" fill="#F8D24E"/>
<ellipse cx="287.061" cy="37.4768" rx="2.60019" ry="2.77865" fill="#F8D24E"/>
<ellipse cx="293.561" cy="33.3089" rx="2.60019" ry="2.77865" fill="#F8D24E"/>
<ellipse cx="299.629" cy="29.6041" rx="2.60019" ry="2.77865" fill="#F8D24E"/>
<ellipse cx="285.331" cy="46.2757" rx="2.60019" ry="2.77865" fill="#F8D24E"/>
<ellipse cx="290.965" cy="42.5708" rx="2.60019" ry="2.77865" fill="#F8D24E"/>
<ellipse cx="298.765" cy="46.7387" rx="2.60019" ry="2.77865" fill="#F8D24E"/>
<ellipse cx="297.465" cy="38.4026" rx="2.60019" ry="2.77865" fill="#F8D24E"/>
<ellipse cx="305.266" cy="42.5708" rx="2.60019" ry="2.77865" fill="#F8D24E"/>
<ellipse cx="311.334" cy="46.7387" rx="2.60019" ry="2.77865" fill="#F8D24E"/>
<ellipse cx="303.533" cy="34.6976" rx="2.60019" ry="2.77865" fill="#F8D24E"/>
<ellipse cx="311.334" cy="38.8654" rx="2.60019" ry="2.77865" fill="#F8D24E"/>
<ellipse cx="317.401" cy="43.0338" rx="2.60019" ry="2.77865" fill="#F8D24E"/>
<ellipse cx="215.559" cy="15.7111" rx="2.60019" ry="2.77865" fill="#F8D24E"/>
<ellipse cx="221.192" cy="12.0058" rx="2.60019" ry="2.77865" fill="#F8D24E"/>
<ellipse cx="227.694" cy="7.83822" rx="2.60019" ry="2.77865" fill="#F8D24E"/>
<ellipse cx="233.759" cy="4.13339" rx="2.60019" ry="2.77865" fill="#F8D24E"/>
<ellipse cx="204.724" cy="15.247" rx="2.60019" ry="2.77865" fill="#F8D24E"/>
<ellipse cx="210.357" cy="11.5424" rx="2.60019" ry="2.77865" fill="#F8D24E"/>
<ellipse cx="216.857" cy="7.37485" rx="2.60019" ry="2.77865" fill="#F8D24E"/>
<ellipse cx="222.924" cy="3.67001" rx="2.60019" ry="2.77865" fill="#F8D24E"/>
<ellipse cx="228.992" cy="46.2757" rx="2.60019" ry="2.77865" fill="#F8D24E"/>
<ellipse cx="234.625" cy="42.5708" rx="2.60019" ry="2.77865" fill="#F8D24E"/>
<ellipse cx="241.125" cy="38.4026" rx="2.60019" ry="2.77865" fill="#F8D24E"/>
<ellipse cx="247.193" cy="34.6976" rx="2.60019" ry="2.77865" fill="#F8D24E"/>
<ellipse cx="222.058" cy="43.4975" rx="2.60019" ry="2.77865" fill="#F8D24E"/>
<ellipse cx="227.692" cy="39.7926" rx="2.60019" ry="2.77865" fill="#F8D24E"/>
<ellipse cx="234.192" cy="35.6244" rx="2.60019" ry="2.77865" fill="#F8D24E"/>
<ellipse cx="240.259" cy="31.9196" rx="2.60019" ry="2.77865" fill="#F8D24E"/>
<ellipse cx="224.659" cy="33.7721" rx="2.60019" ry="2.77865" fill="#F8D24E"/>
<ellipse cx="230.292" cy="30.0672" rx="2.60019" ry="2.77865" fill="#F8D24E"/>
<ellipse cx="236.794" cy="25.899" rx="2.60019" ry="2.77865" fill="#F8D24E"/>
<ellipse cx="242.86" cy="22.1944" rx="2.60019" ry="2.77865" fill="#F8D24E"/>
<ellipse cx="224.659" cy="17.5631" rx="2.60019" ry="2.77865" fill="#F8D24E"/>
<ellipse cx="230.292" cy="13.8579" rx="2.60019" ry="2.77865" fill="#F8D24E"/>
<ellipse cx="236.794" cy="9.69015" rx="2.60019" ry="2.77865" fill="#F8D24E"/>
<ellipse cx="242.86" cy="5.9852" rx="2.60019" ry="2.77865" fill="#F8D24E"/>
<ellipse cx="223.358" cy="26.3628" rx="2.60019" ry="2.77865" fill="#F8D24E"/>
<ellipse cx="228.993" cy="22.6573" rx="2.60019" ry="2.77865" fill="#F8D24E"/>
<ellipse cx="235.492" cy="18.4896" rx="2.60019" ry="2.77865" fill="#F8D24E"/>
<ellipse cx="241.559" cy="14.7849" rx="2.60019" ry="2.77865" fill="#F8D24E"/>
<ellipse cx="196.056" cy="12.9317" rx="2.60019" ry="2.77865" fill="#F8D24E"/>
<ellipse cx="201.691" cy="9.22677" rx="2.60019" ry="2.77865" fill="#F8D24E"/>
<ellipse cx="208.191" cy="5.05917" rx="2.60019" ry="2.77865" fill="#F8D24E"/>
<path d="M207.757 15.7104C209.193 15.7104 210.358 14.4663 210.358 12.9317C210.358 11.3971 209.193 10.1531 207.757 10.1531C206.321 10.1531 205.157 11.3971 205.157 12.9317C205.157 14.4663 206.321 15.7104 207.757 15.7104Z" fill="#F8D24E"/>
<ellipse rx="2.64285" ry="2.81563" transform="matrix(0.986896 -0.161679 0.142011 0.989912 85.5813 33.9821)" fill="#F8D24E"/>
<ellipse rx="2.64285" ry="2.81563" transform="matrix(0.986896 -0.161679 0.142011 0.989912 90.6995 29.3392)" fill="#F8D24E"/>
<ellipse rx="2.64285" ry="2.81563" transform="matrix(0.986896 -0.161679 0.142011 0.989912 96.6204 24.0905)" fill="#F8D24E"/>
<ellipse rx="2.64285" ry="2.81563" transform="matrix(0.986896 -0.161679 0.142011 0.989912 102.173 19.3773)" fill="#F8D24E"/>
<ellipse cx="2.71977" cy="33.5514" rx="2.71977" ry="2.81979" fill="#F8D24E"/>
<ellipse cx="8.61137" cy="29.7916" rx="2.71977" ry="2.81979" fill="#F8D24E"/>
<ellipse cx="15.4131" cy="25.562" rx="2.71977" ry="2.81979" fill="#F8D24E"/>
<ellipse cx="21.7579" cy="21.8017" rx="2.71977" ry="2.81979" fill="#F8D24E"/>
<ellipse cx="5.44047" cy="40.6005" rx="2.71977" ry="2.81979" fill="#F8D24E"/>
<ellipse cx="11.3331" cy="36.8408" rx="2.71977" ry="2.81979" fill="#F8D24E"/>
<ellipse cx="18.1338" cy="32.611" rx="2.71977" ry="2.81979" fill="#F8D24E"/>
<ellipse cx="24.4786" cy="28.8513" rx="2.71977" ry="2.81979" fill="#F8D24E"/>
<ellipse cx="12.2383" cy="44.3598" rx="2.71977" ry="2.81979" fill="#F8D24E"/>
<ellipse cx="18.1319" cy="40.6004" rx="2.71977" ry="2.81979" fill="#F8D24E"/>
<ellipse cx="24.9307" cy="36.3707" rx="2.71977" ry="2.81979" fill="#F8D24E"/>
<ellipse cx="31.2764" cy="32.611" rx="2.71977" ry="2.81979" fill="#F8D24E"/>
<ellipse cx="19.9434" cy="46.7105" rx="2.71977" ry="2.81979" fill="#F8D24E"/>
<ellipse cx="25.836" cy="42.95" rx="2.71977" ry="2.81979" fill="#F8D24E"/>
<ellipse cx="32.6377" cy="38.7208" rx="2.71977" ry="2.81979" fill="#F8D24E"/>
<ellipse cx="38.9815" cy="34.961" rx="2.71977" ry="2.81979" fill="#F8D24E"/>
<ellipse cx="29.917" cy="47.1805" rx="2.71977" ry="2.81979" fill="#F8D24E"/>
<ellipse cx="35.8096" cy="43.4207" rx="2.71977" ry="2.81979" fill="#F8D24E"/>
<ellipse cx="42.6104" cy="39.1908" rx="2.71977" ry="2.81979" fill="#F8D24E"/>
<ellipse cx="48.9551" cy="35.4315" rx="2.71977" ry="2.81979" fill="#F8D24E"/>
<ellipse cx="41.7041" cy="47.1803" rx="2.71977" ry="2.81979" fill="#F8D24E"/>
<ellipse cx="47.5957" cy="43.4205" rx="2.71977" ry="2.81979" fill="#F8D24E"/>
<ellipse cx="54.3956" cy="39.1905" rx="2.71977" ry="2.81979" fill="#F8D24E"/>
<ellipse cx="60.7422" cy="35.4312" rx="2.71977" ry="2.81979" fill="#F8D24E"/>
<ellipse cx="51.6739" cy="46.7103" rx="2.71977" ry="2.81979" fill="#F8D24E"/>
<ellipse cx="57.5665" cy="42.95" rx="2.71977" ry="2.81979" fill="#F8D24E"/>
<ellipse cx="64.3672" cy="38.7208" rx="2.71977" ry="2.81979" fill="#F8D24E"/>
<ellipse cx="70.712" cy="34.961" rx="2.71977" ry="2.81979" fill="#F8D24E"/>
<ellipse cx="63.0059" cy="46.24" rx="2.71977" ry="2.81979" fill="#F8D24E"/>
<ellipse cx="68.8985" cy="42.4804" rx="2.71977" ry="2.81979" fill="#F8D24E"/>
<ellipse cx="75.6993" cy="38.2509" rx="2.71977" ry="2.81979" fill="#F8D24E"/>
<ellipse cx="82.044" cy="34.4909" rx="2.71977" ry="2.81979" fill="#F8D24E"/>
<ellipse cx="73.4317" cy="34.0211" rx="2.71977" ry="2.81979" fill="#F8D24E"/>
<ellipse cx="79.3243" cy="30.2614" rx="2.71977" ry="2.81979" fill="#F8D24E"/>
<ellipse cx="86.1241" cy="26.0317" rx="2.71977" ry="2.81979" fill="#F8D24E"/>
<ellipse cx="92.4698" cy="22.2717" rx="2.71977" ry="2.81979" fill="#F8D24E"/>
</svg>
