<svg width="330" height="52" viewBox="0 0 330 52" fill="none" xmlns="http://www.w3.org/2000/svg">
<g clip-path="url(#clip0_27651_226)">
<ellipse cx="249.555" cy="48.1269" rx="2.68145" ry="2.8898" fill="#F8D24E"/>
<ellipse cx="255.365" cy="44.2736" rx="2.68145" ry="2.8898" fill="#F8D24E"/>
<ellipse cx="262.067" cy="39.9389" rx="2.68145" ry="2.8898" fill="#F8D24E"/>
<ellipse cx="268.325" cy="36.0856" rx="2.68145" ry="2.8898" fill="#F8D24E"/>
<ellipse cx="264.748" cy="46.2003" rx="2.68145" ry="2.8898" fill="#F8D24E"/>
<ellipse cx="270.558" cy="42.3473" rx="2.68145" ry="2.8898" fill="#F8D24E"/>
<ellipse cx="277.262" cy="38.0126" rx="2.68145" ry="2.8898" fill="#F8D24E"/>
<ellipse cx="283.519" cy="34.1598" rx="2.68145" ry="2.8898" fill="#F8D24E"/>
<ellipse cx="277.711" cy="44.7558" rx="2.68145" ry="2.8898" fill="#F8D24E"/>
<ellipse cx="283.521" cy="40.9023" rx="2.68145" ry="2.8898" fill="#F8D24E"/>
<ellipse cx="290.225" cy="36.5675" rx="2.68145" ry="2.8898" fill="#F8D24E"/>
<ellipse cx="296.479" cy="32.7152" rx="2.68145" ry="2.8898" fill="#F8D24E"/>
<ellipse cx="290.222" cy="42.8293" rx="2.68145" ry="2.8898" fill="#F8D24E"/>
<ellipse cx="296.031" cy="38.9757" rx="2.68145" ry="2.8898" fill="#F8D24E"/>
<ellipse cx="302.735" cy="34.6413" rx="2.68145" ry="2.8898" fill="#F8D24E"/>
<ellipse cx="308.992" cy="30.7882" rx="2.68145" ry="2.8898" fill="#F8D24E"/>
<ellipse cx="294.246" cy="48.1269" rx="2.68145" ry="2.8898" fill="#F8D24E"/>
<ellipse cx="300.056" cy="44.2736" rx="2.68145" ry="2.8898" fill="#F8D24E"/>
<ellipse cx="308.1" cy="48.6083" rx="2.68145" ry="2.8898" fill="#F8D24E"/>
<ellipse cx="306.761" cy="39.9389" rx="2.68145" ry="2.8898" fill="#F8D24E"/>
<ellipse cx="314.805" cy="44.2736" rx="2.68145" ry="2.8898" fill="#F8D24E"/>
<ellipse cx="321.061" cy="48.6083" rx="2.68145" ry="2.8898" fill="#F8D24E"/>
<ellipse cx="313.016" cy="36.0856" rx="2.68145" ry="2.8898" fill="#F8D24E"/>
<ellipse cx="321.061" cy="40.4201" rx="2.68145" ry="2.8898" fill="#F8D24E"/>
<ellipse cx="327.318" cy="44.7553" rx="2.68145" ry="2.8898" fill="#F8D24E"/>
<ellipse cx="222.296" cy="16.3395" rx="2.68145" ry="2.8898" fill="#F8D24E"/>
<ellipse cx="228.104" cy="12.486" rx="2.68145" ry="2.8898" fill="#F8D24E"/>
<ellipse cx="234.81" cy="8.15176" rx="2.68145" ry="2.8898" fill="#F8D24E"/>
<ellipse cx="241.064" cy="4.29874" rx="2.68145" ry="2.8898" fill="#F8D24E"/>
<ellipse cx="211.121" cy="15.8568" rx="2.68145" ry="2.8898" fill="#F8D24E"/>
<ellipse cx="216.93" cy="12.0041" rx="2.68145" ry="2.8898" fill="#F8D24E"/>
<ellipse cx="223.634" cy="7.66983" rx="2.68145" ry="2.8898" fill="#F8D24E"/>
<ellipse cx="229.889" cy="3.8168" rx="2.68145" ry="2.8898" fill="#F8D24E"/>
<ellipse cx="236.147" cy="48.1269" rx="2.68145" ry="2.8898" fill="#F8D24E"/>
<ellipse cx="241.956" cy="44.2736" rx="2.68145" ry="2.8898" fill="#F8D24E"/>
<ellipse cx="248.66" cy="39.9389" rx="2.68145" ry="2.8898" fill="#F8D24E"/>
<ellipse cx="254.917" cy="36.0856" rx="2.68145" ry="2.8898" fill="#F8D24E"/>
<ellipse cx="228.997" cy="45.2375" rx="2.68145" ry="2.8898" fill="#F8D24E"/>
<ellipse cx="234.806" cy="41.3842" rx="2.68145" ry="2.8898" fill="#F8D24E"/>
<ellipse cx="241.51" cy="37.0492" rx="2.68145" ry="2.8898" fill="#F8D24E"/>
<ellipse cx="247.766" cy="33.1964" rx="2.68145" ry="2.8898" fill="#F8D24E"/>
<ellipse cx="231.679" cy="35.123" rx="2.68145" ry="2.8898" fill="#F8D24E"/>
<ellipse cx="237.487" cy="31.2699" rx="2.68145" ry="2.8898" fill="#F8D24E"/>
<ellipse cx="244.193" cy="26.935" rx="2.68145" ry="2.8898" fill="#F8D24E"/>
<ellipse cx="250.448" cy="23.0822" rx="2.68145" ry="2.8898" fill="#F8D24E"/>
<ellipse cx="231.679" cy="18.2655" rx="2.68145" ry="2.8898" fill="#F8D24E"/>
<ellipse cx="237.487" cy="14.412" rx="2.68145" ry="2.8898" fill="#F8D24E"/>
<ellipse cx="244.193" cy="10.0778" rx="2.68145" ry="2.8898" fill="#F8D24E"/>
<ellipse cx="250.448" cy="6.22452" rx="2.68145" ry="2.8898" fill="#F8D24E"/>
<ellipse cx="230.338" cy="27.4174" rx="2.68145" ry="2.8898" fill="#F8D24E"/>
<ellipse cx="236.148" cy="23.5636" rx="2.68145" ry="2.8898" fill="#F8D24E"/>
<ellipse cx="242.851" cy="19.2292" rx="2.68145" ry="2.8898" fill="#F8D24E"/>
<ellipse cx="249.107" cy="15.3764" rx="2.68145" ry="2.8898" fill="#F8D24E"/>
<ellipse cx="202.182" cy="13.4491" rx="2.68145" ry="2.8898" fill="#F8D24E"/>
<ellipse cx="207.993" cy="9.59585" rx="2.68145" ry="2.8898" fill="#F8D24E"/>
<ellipse cx="214.697" cy="5.26163" rx="2.68145" ry="2.8898" fill="#F8D24E"/>
<path d="M214.25 16.3389C215.731 16.3389 216.931 15.0451 216.931 13.4491C216.931 11.8531 215.731 10.5593 214.25 10.5593C212.769 10.5593 211.568 11.8531 211.568 13.4491C211.568 15.0451 212.769 16.3389 214.25 16.3389Z" fill="#F8D24E"/>
<ellipse rx="2.726" ry="2.92772" transform="matrix(0.98669 -0.163017 0.140842 0.990092 97.2554 35.3413)" fill="#F8D24E"/>
<ellipse rx="2.726" ry="2.92772" transform="matrix(0.98669 -0.163017 0.140842 0.990092 102.534 30.5124)" fill="#F8D24E"/>
<ellipse rx="2.726" ry="2.92772" transform="matrix(0.98669 -0.163017 0.140842 0.990092 108.64 25.0539)" fill="#F8D24E"/>
<ellipse rx="2.726" ry="2.92772" transform="matrix(0.98669 -0.163017 0.140842 0.990092 114.366 20.1521)" fill="#F8D24E"/>
<ellipse cx="11.7198" cy="33.5512" rx="2.71977" ry="2.81979" fill="#F8D24E"/>
<ellipse cx="17.6114" cy="29.7915" rx="2.71977" ry="2.81979" fill="#F8D24E"/>
<ellipse cx="24.4131" cy="25.562" rx="2.71977" ry="2.81979" fill="#F8D24E"/>
<ellipse cx="30.7579" cy="21.8017" rx="2.71977" ry="2.81979" fill="#F8D24E"/>
<ellipse cx="14.4405" cy="40.6003" rx="2.71977" ry="2.81979" fill="#F8D24E"/>
<ellipse cx="20.3331" cy="36.8405" rx="2.71977" ry="2.81979" fill="#F8D24E"/>
<ellipse cx="27.1338" cy="32.6108" rx="2.71977" ry="2.81979" fill="#F8D24E"/>
<ellipse cx="33.4786" cy="28.851" rx="2.71977" ry="2.81979" fill="#F8D24E"/>
<ellipse cx="21.2383" cy="44.3596" rx="2.71977" ry="2.81979" fill="#F8D24E"/>
<ellipse cx="27.1319" cy="40.6001" rx="2.71977" ry="2.81979" fill="#F8D24E"/>
<ellipse cx="33.9307" cy="36.3706" rx="2.71977" ry="2.81979" fill="#F8D24E"/>
<ellipse cx="40.2764" cy="32.6108" rx="2.71977" ry="2.81979" fill="#F8D24E"/>
<ellipse cx="28.9434" cy="46.7104" rx="2.71977" ry="2.81979" fill="#F8D24E"/>
<ellipse cx="34.836" cy="42.9499" rx="2.71977" ry="2.81979" fill="#F8D24E"/>
<ellipse cx="41.6377" cy="38.7207" rx="2.71977" ry="2.81979" fill="#F8D24E"/>
<ellipse cx="47.9815" cy="34.9609" rx="2.71977" ry="2.81979" fill="#F8D24E"/>
<ellipse cx="38.917" cy="47.1804" rx="2.71977" ry="2.81979" fill="#F8D24E"/>
<ellipse cx="44.8096" cy="43.4206" rx="2.71977" ry="2.81979" fill="#F8D24E"/>
<ellipse cx="51.6104" cy="39.1906" rx="2.71977" ry="2.81979" fill="#F8D24E"/>
<ellipse cx="57.9551" cy="35.4314" rx="2.71977" ry="2.81979" fill="#F8D24E"/>
<ellipse cx="50.7041" cy="47.1801" rx="2.71977" ry="2.81979" fill="#F8D24E"/>
<ellipse cx="56.5957" cy="43.4204" rx="2.71977" ry="2.81979" fill="#F8D24E"/>
<ellipse cx="63.3956" cy="39.1904" rx="2.71977" ry="2.81979" fill="#F8D24E"/>
<ellipse cx="69.7422" cy="35.4311" rx="2.71977" ry="2.81979" fill="#F8D24E"/>
<ellipse cx="60.6739" cy="46.7102" rx="2.71977" ry="2.81979" fill="#F8D24E"/>
<ellipse cx="66.5665" cy="42.9499" rx="2.71977" ry="2.81979" fill="#F8D24E"/>
<ellipse cx="73.3672" cy="38.7207" rx="2.71977" ry="2.81979" fill="#F8D24E"/>
<ellipse cx="79.712" cy="34.9609" rx="2.71977" ry="2.81979" fill="#F8D24E"/>
<ellipse cx="72.0059" cy="46.2397" rx="2.71977" ry="2.81979" fill="#F8D24E"/>
<ellipse cx="77.8985" cy="42.4802" rx="2.71977" ry="2.81979" fill="#F8D24E"/>
<ellipse cx="84.6993" cy="38.2507" rx="2.71977" ry="2.81979" fill="#F8D24E"/>
<ellipse cx="91.044" cy="34.4907" rx="2.71977" ry="2.81979" fill="#F8D24E"/>
<ellipse cx="82.4317" cy="34.021" rx="2.71977" ry="2.81979" fill="#F8D24E"/>
<ellipse cx="88.3243" cy="30.2612" rx="2.71977" ry="2.81979" fill="#F8D24E"/>
<ellipse cx="95.1241" cy="26.0315" rx="2.71977" ry="2.81979" fill="#F8D24E"/>
<ellipse cx="101.47" cy="22.2714" rx="2.71977" ry="2.81979" fill="#F8D24E"/>
</g>
<defs>
<clipPath id="clip0_27651_226">
<rect width="330" height="52" fill="white"/>
</clipPath>
</defs>
</svg>
