<svg aria-hidden="true" style="position: absolute; width: 0; height: 0; overflow: hidden;" version="1.1" xmlns="http://www.w3.org/2000/svg" xmlns:xlink="http://www.w3.org/1999/xlink">
    <defs>

        <symbol id="icon-arrow-white" viewBox="0 0 82 32">
            <path d="M81.414 17.414c0.781-0.781 0.781-2.047 0-2.828l-12.728-12.728c-0.781-0.781-2.047-0.781-2.828 0s-0.781 2.047 0 2.828l11.314 11.314-11.314 11.314c-0.781 0.781-0.781 2.047 0 2.828s2.047 0.781 2.828 0l12.728-12.728zM0 18h80v-4h-80v4z"></path>
        </symbol>

        <symbol id="icon-burger-menu" viewBox="0 0 32 32">
            <path fill="#fff" style="fill: var(--color2, #fff)" d="M26.733 14.667h-21.467c-0.7 0-1.267 0.567-1.267 1.267v0.133c0 0.7 0.567 1.267 1.267 1.267h21.467c0.7 0 1.267-0.567 1.267-1.267v-0.133c0-0.7-0.567-1.267-1.267-1.267z"></path>
            <path fill="#fff" style="fill: var(--color2, #fff)" d="M26.733 21.333h-21.467c-0.7 0-1.267 0.567-1.267 1.267v0.133c0 0.7 0.567 1.267 1.267 1.267h21.467c0.7 0 1.267-0.567 1.267-1.267v-0.133c0-0.7-0.567-1.267-1.267-1.267z"></path>
            <path fill="#fff" style="fill: var(--color2, #fff)" d="M26.733 8h-21.467c-0.7 0-1.267 0.567-1.267 1.267v0.133c0 0.7 0.567 1.267 1.267 1.267h21.467c0.7 0 1.267-0.567 1.267-1.267v-0.133c0-0.7-0.567-1.267-1.267-1.267z"></path>
        </symbol>

        <symbol id="icon-button-arrow" viewBox="0 0 22 32">
            <path d="M3.103 0.726c-0.45 0.45-0.703 1.060-0.703 1.697s0.253 1.247 0.703 1.697l11.88 11.88-11.88 11.88c-0.437 0.453-0.679 1.059-0.674 1.688s0.258 1.231 0.703 1.676c0.445 0.445 1.047 0.697 1.676 0.703s1.236-0.236 1.688-0.674l13.577-13.577c0.45-0.45 0.703-1.060 0.703-1.697s-0.253-1.247-0.703-1.697l-13.577-13.577c-0.45-0.45-1.060-0.703-1.697-0.703s-1.247 0.253-1.697 0.703z"></path>
        </symbol>

        <symbol id="icon-button-cross" viewBox="0 0 32 32">
            <path d="M18.148 16l12.632-12.632c0.25-0.292 0.38-0.666 0.365-1.050s-0.174-0.747-0.445-1.019c-0.271-0.271-0.635-0.43-1.018-0.445s-0.759 0.116-1.050 0.365l-12.632 12.632-12.632-12.648c-0.287-0.287-0.676-0.448-1.082-0.448s-0.795 0.161-1.082 0.448c-0.287 0.287-0.448 0.676-0.448 1.082s0.161 0.795 0.448 1.082l12.648 12.632-12.648 12.632c-0.159 0.137-0.289 0.305-0.381 0.494s-0.143 0.395-0.151 0.605c-0.008 0.21 0.027 0.419 0.104 0.615s0.193 0.373 0.341 0.522 0.326 0.265 0.522 0.341c0.196 0.077 0.405 0.112 0.615 0.104s0.416-0.060 0.605-0.151 0.357-0.221 0.494-0.381l12.648-12.632 12.632 12.632c0.291 0.25 0.666 0.38 1.050 0.365s0.747-0.174 1.018-0.445c0.272-0.272 0.43-0.635 0.445-1.019s-0.116-0.758-0.365-1.050l-12.632-12.632z"></path>
        </symbol>

        <symbol id="icon-social-facebook" viewBox="0 0 16 32">
            <path fill="" style="" d="M14.143 15.972h-4.034v14.865h-6.112v-14.865h-2.907v-5.224h2.907v-3.381c0-2.418 1.142-6.203 6.166-6.203l4.527 0.019v5.071h-3.285c-0.539 0-1.296 0.271-1.296 1.424v3.075h4.567l-0.534 5.219z"></path>
        </symbol>

        <symbol id="icon-social-github" viewBox="0 0 32 32">
            <path fill="" style="" d="M16 0c-8.788 0-16 7.212-16 16 0 7.499 5.262 14.312 12.25 16v-5.293c-0.692 0.152-1.33 0.156-2.034-0.052-0.946-0.279-1.714-0.909-2.284-1.869-0.364-0.613-1.008-1.278-1.68-1.23l-0.165-1.868c1.453-0.124 2.711 0.886 3.457 2.14 0.332 0.558 0.713 0.884 1.203 1.029 0.473 0.14 0.982 0.072 1.574-0.137 0.149-1.186 0.692-1.63 1.102-2.255v-0.001c-4.167-0.622-5.828-2.832-6.488-4.578-0.874-2.317-0.405-5.212 1.14-7.041 0.030-0.036 0.084-0.129 0.063-0.194-0.708-2.139 0.155-3.909 0.187-4.097 0.817 0.242 0.95-0.243 3.551 1.337l0.449 0.27c0.188 0.112 0.129 0.048 0.317 0.034 1.086-0.295 2.23-0.458 3.358-0.472 1.136 0.015 2.273 0.178 3.404 0.484l0.145 0.015c-0.013-0.002 0.040-0.009 0.127-0.062 3.248-1.968 3.132-1.324 4.003-1.608 0.032 0.188 0.883 1.987 0.182 4.099-0.095 0.291 2.816 2.956 1.203 7.235-0.659 1.746-2.32 3.957-6.487 4.578v0.001c0.534 0.814 1.176 1.247 1.173 2.927v6.608c6.988-1.688 12.25-8.501 12.25-16 0-8.788-7.212-16-16-16v0z"></path>
        </symbol>

        <symbol id="icon-social-telegram" viewBox="0 0 44 32">
            <path fill="" style="" d="M17.346 21.048l-0.675 8.86c0.966 0 1.384-0.387 1.885-0.852l4.527-4.038 9.381 6.412c1.72 0.895 2.933 0.424 3.397-1.477l6.158-26.929 0.002-0.002c0.546-2.374-0.92-3.302-2.596-2.72l-36.194 12.933c-2.47 0.895-2.433 2.18-0.42 2.762l9.253 2.686 21.494-12.552c1.011-0.625 1.931-0.279 1.175 0.346l-17.386 14.57z"></path>
        </symbol>

        <symbol id="icon-arrow-products" viewBox="0 0 82 32">
            <path d="M81.414 17.414c0.362-0.362 0.586-0.862 0.586-1.414s-0.224-1.052-0.586-1.414l-12.728-12.728c-0.364-0.377-0.874-0.611-1.439-0.611-1.105 0-2 0.895-2 2 0 0.565 0.234 1.074 0.61 1.438l0.001 0.001 11.314 11.314-11.314 11.314c-0.347 0.359-0.561 0.849-0.561 1.389 0 1.105 0.895 2 2 2 0.54 0 1.030-0.214 1.39-0.562l-0.001 0.001 12.728-12.728zM0 18h80v-4h-80v4z"></path>
        </symbol>

        <symbol id="icon-arrow-right-bold" viewBox="0 0 32 32">
            <path d="M10.586 3.272c-0.375 0.375-0.586 0.884-0.586 1.414s0.211 1.039 0.586 1.414l9.9 9.9-9.9 9.9c-0.364 0.377-0.566 0.882-0.561 1.407s0.215 1.026 0.586 1.397c0.371 0.371 0.872 0.581 1.397 0.586s1.030-0.197 1.407-0.561l11.314-11.314c0.375-0.375 0.586-0.884 0.586-1.414s-0.211-1.039-0.586-1.414l-11.314-11.314c-0.375-0.375-0.884-0.586-1.414-0.586s-1.039 0.211-1.414 0.586z"></path>
        </symbol>

        <symbol id="icon-burger-desk" viewBox="0 0 32 32">
            <path d="M26.733 14.667h-21.467c-0.7 0-1.267 0.567-1.267 1.267v0.133c0 0.7 0.567 1.267 1.267 1.267h21.467c0.7 0 1.267-0.567 1.267-1.267v-0.133c0-0.7-0.567-1.267-1.267-1.267z"></path>
            <path d="M26.733 21.333h-21.467c-0.7 0-1.267 0.567-1.267 1.267v0.133c0 0.7 0.567 1.267 1.267 1.267h21.467c0.7 0 1.267-0.567 1.267-1.267v-0.133c0-0.7-0.567-1.267-1.267-1.267z"></path>
            <path d="M26.733 8h-21.467c-0.7 0-1.267 0.567-1.267 1.267v0.133c0 0.7 0.567 1.267 1.267 1.267h21.467c0.7 0 1.267-0.567 1.267-1.267v-0.133c0-0.7-0.567-1.267-1.267-1.267z"></path>
        </symbol>

        <symbol id="icon-close" viewBox="0 0 32 32">
            <path d="M17.253 16l7.369-7.369c0.146-0.17 0.222-0.389 0.213-0.613s-0.101-0.436-0.26-0.594c-0.158-0.158-0.37-0.251-0.594-0.26s-0.442 0.067-0.612 0.213l-7.369 7.369-7.369-7.378c-0.167-0.167-0.394-0.261-0.631-0.261s-0.464 0.094-0.631 0.261c-0.167 0.167-0.261 0.394-0.261 0.631s0.094 0.464 0.261 0.631l7.378 7.369-7.378 7.369c-0.093 0.080-0.169 0.178-0.222 0.288s-0.083 0.23-0.088 0.353c-0.005 0.123 0.016 0.245 0.061 0.359s0.112 0.218 0.199 0.304c0.087 0.087 0.19 0.154 0.304 0.199s0.236 0.065 0.359 0.060c0.122-0.005 0.243-0.035 0.353-0.088s0.208-0.129 0.288-0.222l7.378-7.369 7.369 7.369c0.17 0.146 0.389 0.222 0.612 0.213s0.436-0.101 0.594-0.26c0.158-0.158 0.251-0.37 0.26-0.594s-0.067-0.442-0.213-0.612l-7.369-7.369z"></path>
        </symbol>

        <symbol id="icon-swipe-up1" viewBox="0 0 32 32">
        <path d="M22.086 20.914l2.829-2.829-8.914-8.914-8.914 8.914 2.828 2.828 6.086-6.086z"></path>
        </symbol>

        <symbol id="icon-swipe-up2" viewBox="0 0 32 32">
        <path d="M16 0c-8.837 0-16 7.163-16 16s7.163 16 16 16 16-7.163 16-16c0-8.837-7.163-16-16-16zM23.402 18.21c-0.737 0.701-1.903 0.672-2.603-0.064l-2.957-3.108v7.362c0 1.018-0.824 1.842-1.842 1.842s-1.841-0.824-1.841-1.842v-7.362l-2.957 3.108c-0.7 0.736-1.867 0.766-2.603 0.064-0.737-0.701-0.767-1.866-0.065-2.603l7.253-7.625c0.055-0.058 0.132-0.091 0.212-0.091s0.157 0.033 0.212 0.091l7.254 7.625c0.702 0.737 0.673 1.902-0.065 2.603z"></path>
        </symbol>

        <symbol id="icon-swipe-up3" viewBox="0 0 32 32">
        <path d="M16 1l-15 15h9v16h12v-16h9z"></path>
        </symbol>

        <symbol id="icon-swipe-up4" viewBox="0 0 32 32">
        <path d="M0 16c0 8.837 7.163 16 16 16s16-7.163 16-16-7.163-16-16-16-16 7.163-16 16zM29 16c0 7.18-5.82 13-13 13s-13-5.82-13-13 5.82-13 13-13 13 5.82 13 13z"></path>
        <path d="M22.086 20.914l2.829-2.829-8.914-8.914-8.914 8.914 2.828 2.828 6.086-6.086z"></path>
        </symbol>

    </defs>
</svg>
